<?xml version="1.0" encoding="utf-8"?>
<!-- Generator: Adobe Illustrator 24.1.2, SVG Export Plug-In . SVG Version: 6.00 Build 0)  -->
<svg version="1.1" id="Camada_1" xmlns="http://www.w3.org/2000/svg" xmlns:xlink="http://www.w3.org/1999/xlink" x="0px" y="0px"
	 viewBox="0 0 98.19 111.79" style="enable-background:new 0 0 98.19 111.79;" xml:space="preserve">
<style type="text/css">
	.st0{fill:#FFFFFF;}
	.st1{fill:#A3E1FF;}
	.st2{fill:#18B5FD;}
	.st3{fill:none;stroke:#203656;stroke-width:3;stroke-linecap:round;stroke-linejoin:round;}
	.st4{fill:none;stroke:#18B5FD;stroke-width:3;stroke-linecap:round;stroke-linejoin:round;}
	.st5{fill:#FFFFFF;stroke:#203656;stroke-width:3;stroke-linecap:round;stroke-linejoin:round;}
	.st6{fill:#203656;}
</style>
<g id="clock" transform="translate(1.56 1.5)">
	<ellipse id="Elipse_5" class="st0" cx="47.54" cy="74.77" rx="33.99" ry="33.99"/>
	<ellipse id="Elipse_6" class="st0" cx="47.54" cy="74.77" rx="27.2" ry="27.2"/>
	<path id="Caminho_79" class="st1" d="M81.53,74.77c0.01-7.98-2.8-15.7-7.92-21.81C68.58,66.11,55.96,74.8,41.87,74.8
		c-10.07-0.01-19.62,4.46-26.06,12.19c6.75,17.52,26.43,26.25,43.95,19.49C72.88,101.42,81.53,88.82,81.53,74.77L81.53,74.77z"/>
	<path id="Caminho_80" class="st2" d="M73.61,52.96c-0.9,2.35-2.06,4.6-3.46,6.69c8.36,12.48,5.03,29.37-7.45,37.74
		s-29.37,5.03-37.74-7.45c-1.68-2.5-2.92-5.26-3.7-8.17c-2,1.53-3.83,3.28-5.45,5.21c6.72,17.53,26.38,26.3,43.92,19.58
		s26.3-26.38,19.58-43.92C77.96,59.12,76.03,55.85,73.61,52.96z"/>
	<line id="Linha_1" class="st3" x1="47.54" y1="13.58" x2="47.54" y2="-0.02"/>
	<line id="Linha_2" class="st4" x1="27.14" y1="19.04" x2="23.74" y2="13.15"/>
	<line id="Linha_3" class="st3" x1="12.21" y1="33.98" x2="0.43" y2="27.17"/>
	<line id="Linha_4" class="st4" x1="6.74" y1="54.37" x2="-0.06" y2="54.37"/>
	<line id="Linha_5" class="st4" x1="88.34" y1="54.37" x2="95.13" y2="54.37"/>
	<line id="Linha_6" class="st3" x1="82.87" y1="33.98" x2="94.65" y2="27.17"/>
	<line id="Linha_7" class="st4" x1="67.94" y1="19.04" x2="71.33" y2="13.15"/>
	<rect id="Retângulo_6" x="40.74" y="29.35" class="st5" width="13.6" height="6.8"/>
	<path id="Caminho_81" class="st3" d="M47.54,40.77c0.57,0,1.14,0.02,1.7,0.04v-4.66h-3.4v4.66C46.4,40.79,46.97,40.77,47.54,40.77z
		"/>
	<path id="Caminho_82" class="st3" d="M71.58,50.73c0.4,0.4,0.79,0.82,1.17,1.23l4.84-4.84l-2.4-2.4l-4.84,4.84
		C70.76,49.94,71.17,50.33,71.58,50.73z"/>
	<g id="Grupo_44" transform="translate(39.37 61.12)">
		<line id="Linha_8" class="st3" x1="5.39" y1="16.43" x2="21.85" y2="-0.02"/>
		<line id="Linha_9" class="st3" x1="10.91" y1="16.39" x2="-0.06" y2="5.42"/>
	</g>
	<ellipse id="Elipse_7" class="st3" cx="47.54" cy="74.77" rx="33.99" ry="33.99"/>
	<rect id="Retângulo_7" x="45.83" y="36.15" class="st6" width="3" height="3.79"/>
	
		<rect id="Retângulo_8" x="71.24" y="46.34" transform="matrix(0.7772 -0.6292 0.6292 0.7772 -13.9657 57.5585)" class="st6" width="6.13" height="4.33"/>
	<ellipse id="Elipse_8" class="st3" cx="47.54" cy="74.77" rx="27.2" ry="27.2"/>
</g>
</svg>
