<?xml version="1.0" encoding="utf-8"?>
<!-- Generator: Adobe Illustrator 24.1.2, SVG Export Plug-In . SVG Version: 6.00 Build 0)  -->
<svg version="1.1" id="Camada_1" xmlns="http://www.w3.org/2000/svg" xmlns:xlink="http://www.w3.org/1999/xlink" x="0px" y="0px"
	 viewBox="0 0 1421.99 134.4" style="enable-background:new 0 0 1421.99 134.4;" xml:space="preserve">
<style type="text/css">
	.st0{fill:#00757D;}
	.st1{fill:#0A696F;}
	.st2{fill:#199F91;}
</style>
<g id="Grupo_42" transform="translate(0 -200.378)">
	<g id="Grupo_40" transform="translate(0 200.378)">
		<path id="Caminho_75" class="st0" d="M1421.99,19.88c-160.06-41.76-308.11,15.75-516.34,15.75c-192.47,0-249.8-31.73-425.89-31.73
			C308.77,3.89,213.59,57.45,0,0v134.4h1421.99V19.88z"/>
	</g>
	<path id="Caminho_76" class="st1" d="M118.54,223.17c137.44,14.86,225.43-18.9,361.23-18.9c176.09,0,233.42,31.74,425.89,31.74
		c100.56,0,187.08-13.41,267.7-22.58c78,29.45,125.84,81.22,137.82,121.35H54.64c1.53-9.93,4.21-19.13,8.19-30.3
		C73.37,274.82,92.81,247.82,118.54,223.17z"/>
	<g id="Grupo_41" transform="translate(0 253.854)">
		<path id="Caminho_77" class="st2" d="M1421.99,23.8C1241.45,53.55,1171.21,0,962.99,0c-192.47,0-335.8,39.67-540.55,39.67
			c-171,0-249.8-43.63-422.43-25.78v67.04h1421.98V23.8z"/>
	</g>
	<path id="Caminho_78" class="st2" d="M83.93,263.49c119.49,0.53,197.81,30.03,338.51,30.03c204.75,0,348.08-39.67,540.55-39.67
		c145.49,0,223.62,26.14,319.07,31.74c14.71,16.83,24.54,33.86,29.11,49.18H54.64c1.53-9.93,4.21-19.13,8.19-30.3
		C68.08,289.97,75.17,276.19,83.93,263.49z"/>
</g>
</svg>
