<?xml version="1.0" encoding="utf-8"?>
<!-- Generator: Adobe Illustrator 24.1.2, SVG Export Plug-In . SVG Version: 6.00 Build 0)  -->
<svg version="1.1" id="Camada_1" xmlns="http://www.w3.org/2000/svg" xmlns:xlink="http://www.w3.org/1999/xlink" x="0px" y="0px"
	 viewBox="0 0 75.7 68.65" style="enable-background:new 0 0 75.7 68.65;" xml:space="preserve">
<style type="text/css">
	.st0{fill:#FFFFFF;}
	.st1{fill:#18B5FD;}
	.st2{fill:#A3E1FF;}
	.st3{fill:none;stroke:#213657;stroke-width:3;stroke-miterlimit:10;}
	.st4{fill:#213657;}
</style>
<g id="error" transform="translate(0.727 1.5)">
	<path id="Caminho_83" class="st0" d="M30.13,3.49L1.6,54.21c-2.69,4.66,1.62,11.44,7,11.44h57.05c5.38,0,9.69-6.78,7-11.44
		L44.12,3.49C41.43-1.16,32.82-1.17,30.13,3.49z"/>
	<path id="Caminho_84" class="st1" d="M47.06,19.3l2.92-5.87l18.66,33.5l4.14,7.94l0.69,4.49l-2.59,4.32l-3.63,2.07L8.6,65.65
		l-4.37-1.28l-2.24-2.59l-2.08-3.8l0.52-3.11l3.97-6.73l8.81-4.32l-3.97,7.43l-2.24,7.95l5.52,1.38l51.98,0.17l2.42-2.24l0.17-2.42
		L47.06,19.3z"/>
	<path id="Caminho_85" class="st2" d="M67.08,56.08c0-3.18-4.89-11.23-9.5-19.69c-4.29-7.87-8.25-16.2-10.01-18.31
		c-3.61,9.43-11.76,14.73-22.45,14.73c-7.73,0-8.52,6.36-13.12,11.86c-1.04,4.49-2.76,5.83-3.88,8.44
		c-1.86,4.35-1.07,7.97,5.61,7.97c6.45,0,27.91-0.86,35.4-0.35C59.14,61.44,67.08,63.5,67.08,56.08z"/>
	<path id="Caminho_86" class="st3" d="M32.78,8.23L8.12,53.13c-1.97,3.41-1.32,7.69,2.63,7.69h52.76c3.94,0,4.6-4.28,2.63-7.69
		L41.48,8.23c-1.34-2.4-4.37-3.27-6.77-1.93C33.89,6.75,33.23,7.42,32.78,8.23z"/>
	<path id="Caminho_87" class="st3" d="M30.13,3.49L1.6,54.21c-2.69,4.66,1.62,11.44,7,11.44h57.05c5.38,0,9.69-6.78,7-11.44
		L44.12,3.49C41.43-1.16,32.82-1.17,30.13,3.49z"/>
	<path id="Caminho_88" class="st4" d="M37.13,55.4c-2.62,0-4.75-2.13-4.75-4.75c0-2.62,2.13-4.75,4.75-4.75s4.75,2.13,4.75,4.75l0,0
		C41.87,53.27,39.75,55.4,37.13,55.4z"/>
	<path id="Caminho_108" class="st2" d="M37.13,48.05c1.44,0,2.6,1.16,2.6,2.6s-1.16,2.6-2.6,2.6s-2.6-1.16-2.6-2.6
		S35.69,48.05,37.13,48.05C37.13,48.05,37.13,48.05,37.13,48.05z"/>
	<g id="Grupo_45" transform="translate(33.848 27.241)">
		<path id="Caminho_89" class="st1" d="M2.5,16.41l2.76-0.35c0.32,0,0.41-1.72,0.43-2.04l0.78,0.31L7.16,0
			C5.52,1.21,1.89,3.76-0.09,4.49L0.6,14.85C1.08,15.53,1.74,16.07,2.5,16.41z"/>
	</g>
	<path id="Caminho_90" class="st4" d="M38.6,44.27h-2.96c-1.45,0-2.66-1.14-2.74-2.59l-1.22-22.15c-0.08-1.51,1.07-2.8,2.58-2.88
		c0.05,0,0.1,0,0.16,0h5.41c1.51,0,2.74,1.22,2.74,2.73c0,0.05,0,0.1,0,0.16l-1.22,22.15l0,0C41.26,43.13,40.06,44.27,38.6,44.27z
		 M34.42,18.79c-0.16,0-0.32,0.07-0.43,0.19c-0.11,0.12-0.17,0.28-0.16,0.44l1.22,22.15c0.02,0.31,0.28,0.56,0.59,0.56h2.96
		c0.31,0,0.57-0.25,0.59-0.56l0,0l1.22-22.15c0.02-0.33-0.23-0.6-0.56-0.62c-0.01,0-0.02,0-0.03,0L34.42,18.79z"/>
</g>
</svg>
