<?xml version="1.0" encoding="utf-8"?>
<!-- Generator: Adobe Illustrator 24.1.2, SVG Export Plug-In . SVG Version: 6.00 Build 0)  -->
<svg version="1.1" id="Camada_1" xmlns="http://www.w3.org/2000/svg" xmlns:xlink="http://www.w3.org/1999/xlink" x="0px" y="0px"
	 viewBox="0 0 91.92 77.88" style="enable-background:new 0 0 91.92 77.88;" xml:space="preserve">
<style type="text/css">
	.st0{fill:#FFFFFF;}
	.st1{fill:#18B5FD;}
	.st2{fill:#A3E1FF;}
	.st3{fill:none;stroke:#213657;stroke-width:3;stroke-miterlimit:10;}
	.st4{fill:#213657;}
</style>
<g id="plus" transform="translate(1.5 1.5)">
	<path id="Caminho_91" class="st0" d="M79.06,63.35c-0.06-0.5,0.17-1,0.59-1.28c5.7-3.85,9.27-9.33,9.27-15.43
		c0-7.46-5.36-14.02-13.44-17.76c-0.99,7.27-5.25,13.92-12.25,19c-7.54,5.47-17.48,8.48-27.98,8.48c-0.37,0-0.73-0.01-1.1-0.02
		C39,63.09,48.71,67.7,59.9,67.7c2.21,0,4.41-0.18,6.59-0.55c0.4-0.07,0.82,0.04,1.13,0.31c3.77,3.33,9.7,5.99,16.77,7.4
		c0.37,0.08,0.73-0.16,0.81-0.53c0.05-0.24-0.03-0.48-0.21-0.65C81.67,70.71,79.54,67.15,79.06,63.35z"/>
	<g id="Grupo_48" transform="translate(0 0)">
		<g id="Grupo_47">
			<g id="Grupo_46">
				<path id="Caminho_92" class="st0" d="M35.26,0C15.79,0,0,11.46,0,25.58c0,8.53,5.76,16.1,14.61,20.74
					c0.35,0.18,0.61,0.51,0.71,0.9c0.12,0.5,0.2,1,0.26,1.51c0.5,4.64-1.52,9.17-5.32,12.98c-0.27,0.27-0.27,0.7,0,0.96
					c0.17,0.17,0.42,0.24,0.65,0.18c8.86-2.28,15.77-6.48,18.73-11.26c0.27-0.43,0.76-0.68,1.26-0.63c1.42,0.13,2.88,0.2,4.35,0.2
					c19.47,0,35.26-11.46,35.26-25.58S54.73,0,35.26,0z"/>
			</g>
		</g>
	</g>
	<path id="Caminho_93" class="st1" d="M8.84,35.29l-3.83,4.28l5.36,4.13l4.24,2.61l0.81,3.82l-0.92,5.82l-3.52,4.9l-0.07,2l8.8-2.92
		l5.36-3.68l3.98-4.44l1.85-0.85l4.12,0.7l9.96-1.69l9.65-2.76l5.51-3.83l4.44-4.14l3.52-3.98L69.79,31l1.07-6.74l-1.53-5.97
		l-4.29-6.59l-6.89-5.51l-1.69,6.12l4.59,3.68l3.06,5.51l1.68,5.51l-1.38,5.21l-4.29,4.29l-4.74,3.06l-7.66,4.59l-5.05,1.53
		l-7.42,0.4l-11.87-1.47l-6.89-2.45l-4.9-3.98L8.84,35.29z"/>
	<path id="Caminho_94" class="st2" d="M11.9,38.81l5.36,3.12l2.46,2.39l0.77,6.43l-0.55,2.01c0.3,0.15,0.62,0.28,0.93,0.41
		l2.68-1.96l5.05-4.75l4.44-0.46l6.74-0.61l10.1-1.99l9.19-5.97l4.44-4.75l1.16-1.12c0.89-5.15,0.41-10.45-1.4-15.36L63.05,16
		l-6.79-4.47c-5.27,9.27-15.11,15-25.78,14.99c-7.61,0-15.57,3.9-21.16,8.97L11.9,38.81z"/>
	<path id="Caminho_95" class="st2" d="M88.64,44.53L87,41.8c-5.27,9.27-15.12,14.99-25.78,14.99c-7.61,0-13.1,2.33-18.7,7.39
		l7.76,1.74l3.64,1.42l6.66,0.47l6.34-0.32l9.83,5.39l8.08,1.74l-4.59-6.97l-0.79-5.07l7.45-7.45c0.29-1.64,2.22-3.66,2.22-5.39"/>
	<g id="Grupo_51" transform="translate(0 0)">
		<g id="Grupo_50">
			<g id="Grupo_49">
				<path id="Caminho_96" class="st3" d="M35.26,0C15.79,0,0,11.46,0,25.58c0,8.53,5.76,16.1,14.61,20.74
					c0.35,0.18,0.61,0.51,0.71,0.9c0.12,0.5,0.2,1,0.26,1.51c0.5,4.64-1.52,9.17-5.32,12.98c-0.27,0.27-0.27,0.7,0,0.96
					c0.17,0.17,0.42,0.24,0.65,0.18c8.86-2.28,15.77-6.48,18.73-11.26c0.27-0.43,0.76-0.68,1.26-0.63c1.42,0.13,2.88,0.2,4.35,0.2
					c19.47,0,35.26-11.46,35.26-25.58S54.73,0,35.26,0z"/>
			</g>
		</g>
	</g>
	<path id="Caminho_97" class="st3" d="M19.95,45.39v-0.02c-0.35-1.48-1.33-2.73-2.69-3.43c-7.46-3.89-11.92-10-11.92-16.32
		c0-5.23,2.94-10.23,8.29-14.09c5.73-4.13,13.41-6.4,21.63-6.4s15.9,2.27,21.63,6.4c5.35,3.85,8.29,8.86,8.29,14.09
		s-2.94,10.24-8.29,14.09c-5.73,4.13-13.41,6.4-21.63,6.4c-1.27,0-2.55-0.06-3.83-0.17c-0.17-0.01-0.32-0.02-0.46-0.02
		c-1.81,0-3.5,0.94-4.46,2.47c-1.79,2.47-4.18,4.44-6.94,5.74c0.72-2.21,0.96-4.54,0.71-6.84C20.21,46.64,20.1,46.01,19.95,45.39"/>
	<path id="Caminho_98" class="st3" d="M79.06,63.35c-0.06-0.5,0.17-1,0.59-1.28c5.7-3.85,9.27-9.33,9.27-15.43
		c0-7.46-5.36-14.02-13.44-17.76c-0.99,7.27-5.25,13.92-12.25,19c-7.54,5.47-17.48,8.48-27.98,8.48c-0.37,0-0.73-0.01-1.1-0.02
		C39,63.09,48.71,67.7,59.9,67.7c2.21,0,4.41-0.18,6.59-0.55c0.4-0.07,0.82,0.04,1.13,0.31c3.77,3.33,9.7,5.99,16.77,7.4
		c0.37,0.08,0.73-0.16,0.81-0.53c0.05-0.24-0.03-0.48-0.21-0.65C81.67,70.71,79.54,67.15,79.06,63.35z"/>
	<path id="Caminho_99" class="st4" d="M46.56,21.85h-8.2v-8.21H32v8.21h-8.21v6.36H32v8.2h6.36v-8.2h8.2L46.56,21.85z"/>
</g>
</svg>
