<?xml version="1.0" encoding="utf-8"?>
<!-- Generator: Adobe Illustrator 24.1.2, SVG Export Plug-In . SVG Version: 6.00 Build 0)  -->
<svg version="1.1" id="Camada_1" xmlns="http://www.w3.org/2000/svg" xmlns:xlink="http://www.w3.org/1999/xlink" x="0px" y="0px"
	 viewBox="0 0 91.92 77.88" style="enable-background:new 0 0 91.92 77.88;" xml:space="preserve">
<style type="text/css">
	.st0{fill:#FFFFFF;}
	.st1{fill:#18B5FD;}
	.st2{fill:#A3E1FF;}
	.st3{fill:#203656;}
</style>
<path id="Caminho_100" class="st0" d="M79.06,25.57V6.39c0-2.18-1.77-3.94-3.95-3.94h-2.64c-2.18,0-1.85,1.99-1.85,4.17v1.14
	l-30.7,12.96H18.66c-3.36,0-6.35,2.12-7.47,5.28H7.64c-2.94-0.01-5.32,2.37-5.33,5.31c0,0,0,0.01,0,0.01v10.65
	c0,2.94,2.25,3.57,5.19,3.57l4.65,0.32c1.11,3.07,3.15,5.73,6.6,5.74l2.7,0.11c2.94,11.52-1.16,17.54-1.41,21.33
	c-0.06,0.81-1.24,1.51-0.69,2.1c0.56,0.59,1.34,0.93,2.15,0.93c6.06-0.01,12.32-0.02,17.03-0.03c0.71,0,1.39-0.32,1.84-0.86
	c0.46-0.55,0.65-1.27,0.51-1.97c-0.01-0.06-1.36-0.1-1.37-0.16c-0.48-2.71-2.86-7.61-4.65-13.96h1.95c2.91,0,5.45-1.15,5.45-4.05
	l-0.46-3.53l27.71,11.91l1.3,2.38c0,2.18,0.85,4.54,3.03,4.54l1.24,0.5c2.18,0,3.95-1.77,3.95-3.94l-0.32-20.37
	c4.92-1.3,8.88-4.55,8.88-9.87C87.61,31.44,84.09,26.89,79.06,25.57z"/>
<path id="Caminho_101" class="st1" d="M39.98,74.98c-1.55-2.45-6.38-15.85-7.15-18.73c-2.13,1.63-7.22,4.68-8.94,6.73
	c-0.48,5.18-6.4,7.93-2.32,11.67L39.98,74.98z"/>
<path id="Caminho_102" class="st1" d="M11.94,45.11c-1.55-2.29-0.75-10.64-1.52-13.32c-2.12,1.51-4.06,3.24-5.8,5.16
	c-0.48,4.83-3.15,4.77,0.92,8.26L11.94,45.11z"/>
<path id="Caminho_103" class="st2" d="M71.37,49.32c0.96-4.5,0.74-6.02-0.22-10.39c-0.87-4.02,2.92-11.36,1.08-14.83
	c-7.92,12.2-21.79,19.23-36.87,16.01c-6.47-1.39-13.21-0.97-19.45,1.22c-3.75,1.32-1.61,1.12-4.73,3.55c0.52,3.3,1.68,0.74,2.6,3.9
	c0.61,2.09,2.77,2.49,5.2,2.49c1.73,0,1.71,0.54,3.25,0.43c7.58-0.54,0.76-1.68,8.66,0c3.43,0.73,7.03-1.25,10.5-0.22
	c7.63,2.26,22.27,11.66,28.36,12.88C75.16,65.45,69.54,57.9,71.37,49.32z"/>
<path id="Caminho_104" class="st3" d="M34.37,40.29c0-0.93-0.75-1.68-1.69-1.68H20.16c-0.93,0-1.69,0.75-1.69,1.68
	c0,0.93,0.75,1.69,1.69,1.69h12.52C33.61,41.98,34.37,41.22,34.37,40.29C34.37,40.29,34.37,40.29,34.37,40.29z"/>
<path id="Caminho_105" class="st3" d="M34.29,32.25c0-0.93-0.75-1.68-1.69-1.68H20.09c-0.93,0-1.69,0.75-1.69,1.68
	c0,0.93,0.75,1.69,1.69,1.69h12.52c0.93,0,1.68-0.75,1.69-1.67C34.29,32.26,34.29,32.25,34.29,32.25z"/>
<path id="Caminho_106" class="st3" d="M80.42,24.88V5.18c0-2.24-1.82-4.05-4.05-4.05h-2.7c-2.24,0-4.05,1.81-4.05,4.05c0,0,0,0,0,0
	v1.17L40.27,19.89h-21.8c-3.44,0-6.51,2.17-7.66,5.42H7.17c-3.01,0-5.46,2.44-5.47,5.45c0,0.01,0,0.01,0,0.02v10.93
	c0,3.02,2.44,5.46,5.46,5.47c0,0,0,0,0,0h3.64c1.15,3.24,4.22,5.41,7.66,5.42h1.71c3.02,11.83-1.53,17.03-1.79,20.92
	c-0.11,1.67,1.15,3.11,2.82,3.22c0.07,0,0.14,0.01,0.21,0.01c6.21-0.01,12.64-0.02,17.47-0.04c1.36,0,2.46-1.11,2.46-2.47
	c0-0.15-0.01-0.3-0.04-0.44c-0.01-0.06-0.02-0.12-0.03-0.17c-0.5-2.78-3.12-6.56-4.96-13.09h1.01c2.98,0,5.39-2.41,5.39-5.39v-1.42
	l26.91,12.42v1.18c0,2.24,1.82,4.05,4.05,4.05h2.7c2.24,0,4.05-1.82,4.05-4.05v-19.7c6.28-1.64,10.04-8.05,8.4-14.33
	C87.74,29.17,84.53,25.96,80.42,24.88z M10.3,43.81H7.17c-1.15,0-2.09-0.94-2.09-2.09V30.78c0-0.56,0.22-1.09,0.61-1.49
	c0.39-0.39,0.93-0.61,1.48-0.61h3.14V43.81z M36.48,70.45c0.28,0.61,0.54,1.19,0.76,1.72c0.19,0.42-0.01,0.91-0.43,1.1
	c-0.11,0.05-0.22,0.07-0.34,0.07L23.2,73.36c-0.34,0-0.67-0.17-0.86-0.45c-0.2-0.28-0.25-0.64-0.14-0.96
	c0.11-0.32,0.23-0.68,0.36-1.05c2.24-5.85,2.61-12.25,1.06-18.32h7.29l0.52,0.09C32.05,58.85,33.77,64.87,36.48,70.45z M39.34,55.12
	c0,1.12-0.9,2.02-2.02,2.02c0,0,0,0,0,0H35.5c-0.28-1.39-0.5-2.94-0.67-4.55h4.51L39.34,55.12z M39.4,49.22H18.47
	c-2.65,0-4.8-2.15-4.8-4.8l0,0V28.07c0.01-2.65,2.16-4.8,4.81-4.8h20.93L39.4,49.22z M69.62,62.42L42.77,50.03V22.46l26.85-12.39
	V62.42z M77.05,66.63c0,0.74-0.6,1.35-1.35,1.35c0,0,0,0,0,0h-1.36c-0.75,0-1.35-0.6-1.35-1.35V5.86c0-0.74,0.6-1.35,1.34-1.35
	c0,0,0,0,0,0h1.37c0.36,0,0.7,0.14,0.96,0.39c0.25,0.25,0.4,0.6,0.4,0.96L77.05,66.63z M83.36,42.2c-0.83,0.83-1.83,1.48-2.94,1.89
	V28.39c4.34,1.66,6.51,6.52,4.86,10.85C84.86,40.36,84.2,41.36,83.36,42.2z"/>
</svg>
